<?xml version="1.0" standalone="no"?><!DOCTYPE svg PUBLIC "-//W3C//DTD SVG 1.1//EN" "http://www.w3.org/Graphics/SVG/1.1/DTD/svg11.dtd"><svg t="1739436954819" class="icon" viewBox="0 0 1024 1024" version="1.1" xmlns="http://www.w3.org/2000/svg" p-id="5307" width="16" height="16" xmlns:xlink="http://www.w3.org/1999/xlink"><path d="M502.06 194.416l19.876 37.746-405.28 213.406-19.876-37.748z" fill="#FFCE54" p-id="5308"></path><path d="M521.93 194.462l405.302 213.346-19.87 37.75L502.06 232.212z" fill="#F6BB42" p-id="5309"></path><path d="M1023.984 853.296c0 11.808-9.562 21.372-21.342 21.372H21.326c-11.782 0-21.31-9.562-21.31-21.372V426.666c0-11.782 9.53-21.342 21.31-21.342h981.316c11.78 0 21.342 9.562 21.342 21.342v426.63z" fill="#A0D468" p-id="5310"></path><path d="M206.226 546.18c-56.748 0-94.902 41.25-94.902 102.684 0 29.938 9 55.624 26.06 74.184 17.094 18.688 40.718 28.562 68.31 28.562 27.5 0 51.062-9.876 68.216-28.562 17.094-18.622 26.124-44.246 26.124-74.184 0.004-60.496-38.558-102.684-93.808-102.684z m0 173.058c-35.092 0-56.874-27.188-56.874-70.876 0-42.438 22.124-69.872 56.342-69.872 16.844 0 31.032 6.5 40.968 18.808 10.062 12.438 15.344 30.188 15.344 51.312 0.002 42.94-21.874 70.628-55.78 70.628zM427.22 550.742h-85.466v196.242h37.782v-73.934h52.28c39.718 0 64.374-23.688 64.374-61.688-0.002-38.558-25.126-60.62-68.97-60.62z m-47.684 32.062h41.998c25.718 0 37.718 9.312 37.718 29.372 0 19.624-11.688 29.562-34.75 29.562h-44.966v-58.934zM567.904 661.426H665.4v-31.312h-97.496v-46.996h105.058v-32.376h-142.558v196.242h144.152v-32.87h-106.652zM844.24 550.742v136.808l-85.466-136.808h-38.498v196.242h35.872v-136.558l86.56 136.558h37.936v-196.242z" fill="#434A54" p-id="5311"></path><path d="M575.998 213.33c0 35.344-28.656 63.998-63.998 63.998-35.376 0-63.998-28.654-63.998-63.998 0-35.342 28.624-63.998 63.998-63.998 35.342 0 63.998 28.656 63.998 63.998z" fill="#434A54" p-id="5312"></path></svg>